<svg width="120" height="90" viewBox="0 0 120 90" fill="none">
  <path d="M26 12C26 5.37257 31.3726 0 38 0H52.2003C57.6037 0 62.3407 3.61137 63.7718 8.82183L64.0257 9.74639C64.7413 12.3516 67.1098 14.1573 69.8115 14.1573H102V28.3146H26V12Z" fill="#AF52DE"/>
  <path d="M13 12C13 5.37257 18.3726 0 25 0H39.2003C44.6037 0 49.3407 3.61137 50.7718 8.82183L51.0257 9.74639C51.7413 12.3516 54.1098 14.1573 56.8115 14.1573H89V28.3146H13V12Z" fill="#00C7BE"/>
  <path d="M0 12C0 5.37257 5.37258 0 12 0H26.2003C31.6037 0 36.3407 3.61137 37.7718 8.82183L38.0257 9.74639C38.7413 12.3516 41.1098 14.1573 43.8115 14.1573H76V28.3146H0V12Z" fill="#FFCC00"/>
  <path d="M0 13.146H108C114.627 13.146 120 18.5186 120 25.146V77.9999C120 84.6274 114.627 89.9999 108 89.9999H12C5.37259 89.9999 0 84.6273 0 77.9999V13.146Z" fill="#FFCC00"/>
  <rect x="68" y="61.6855" width="44" height="20.2247" rx="4" fill="#FF9500"/>
</svg>
