<svg width="100" height="75" viewBox="0 0 100 75" fill="none">
  <path d="M21.6665 12C21.6665 5.37258 27.0391 0 33.6665 0H45.0249C48.6271 0 51.7851 2.40758 52.7392 5.88122L53.1527 7.38684C53.8682 9.99207 56.2367 11.7978 58.9384 11.7978H84.9998V23.5955H21.6665V12Z" fill="#AF52DE"/>
  <path d="M10.8335 12C10.8335 5.37258 16.2061 0 22.8335 0H34.1918C37.7941 0 40.9521 2.40758 41.9062 5.88122L42.3197 7.38684C43.0352 9.99207 45.4037 11.7978 48.1054 11.7978H74.1668V23.5955H10.8335V12Z" fill="#00C7BE"/>
  <path d="M0 8C0 3.58172 3.58172 0 8 0H23.3583C26.9606 0 30.1186 2.40758 31.0727 5.88122L31.4862 7.38684C32.2017 9.99207 34.5702 11.7978 37.2719 11.7978H63.3333V23.5955H0V8Z" fill="#FFCC00"/>
  <path d="M0 10.9551H92C96.4183 10.9551 100 14.5368 100 18.9551V67C100 71.4183 96.4183 75 92 75H8C3.58172 75 0 71.4183 0 67V10.9551Z" fill="#FFCC00"/>
  <rect x="56.6665" y="51.4043" width="36.6667" height="16.8539" rx="4" fill="#FF9500"/>
</svg>
