<svg width="80" height="60" viewBox="0 0 80 60" fill="none">
  <path d="M17.3335 12C17.3335 5.37258 22.7061 0 29.3335 0H36.3251C39.0268 0 41.3953 1.80568 42.1109 4.41092L42.2802 5.02729C42.9957 7.63252 45.3642 9.4382 48.0659 9.4382H68.0002V18.8764H17.3335V12Z" fill="#AF52DE"/>
  <path d="M8.6665 12C8.6665 5.37258 14.0391 0 20.6665 0H27.6581C30.3598 0 32.7283 1.80568 33.4439 4.41092L33.6132 5.02729C34.3287 7.63252 36.6972 9.4382 39.3989 9.4382H59.3332V18.8764H8.6665V12Z" fill="#00C7BE"/>
  <path d="M0 6C0 2.68629 2.68629 0 6 0H18.9916C21.6933 0 24.0618 1.80568 24.7774 4.41092L24.9467 5.02729C25.6622 7.63252 28.0307 9.4382 30.7324 9.4382H50.6667V18.8764H0V6Z" fill="#FFCC00"/>
  <path d="M0 8.76416H74C77.3137 8.76416 80 11.4505 80 14.7642V54.0001C80 57.3138 77.3137 60.0001 74 60.0001H6C2.68629 60.0001 0 57.3138 0 54.0001V8.76416Z" fill="#FFCC00"/>
  <rect x="45.3335" y="41.1235" width="29.3333" height="13.4831" rx="4" fill="#FF9500"/>
</svg>
